<svg width="48" height="48" fill="none" xmlns="http://www.w3.org/2000/svg"><path d="M17.25 45A6.75 6.75 0 0024 38.25V31.5h-6.75a6.75 6.75 0 000 13.5z" fill="#0ACF83"/><path d="M10.5 24c0-1.99.711-3.897 1.977-5.303C13.743 17.29 15.46 16.5 17.25 16.5H24v15h-6.75c-1.79 0-3.507-.79-4.773-2.197C11.211 27.897 10.5 25.99 10.5 24z" fill="#A259FF"/><path d="M10.5 9.75A6.749 6.749 0 0117.247 3H24v13.5h-6.747A6.754 6.754 0 0110.5 9.75z" fill="#F24E1E"/><path d="M24 3h6.75a6.75 6.75 0 010 13.5H24V3z" fill="#FF7262"/><path d="M37.5 24c0 1.99-.711 3.897-1.977 5.303C34.257 30.71 32.54 31.5 30.75 31.5c-1.79 0-3.507-.79-4.773-2.197C24.711 27.897 24 25.99 24 24c0-1.99.711-3.897 1.977-5.303C27.243 17.29 28.96 16.5 30.75 16.5c1.79 0 3.507.79 4.773 2.197C36.789 20.103 37.5 22.01 37.5 24z" fill="#1ABCFE"/></svg>