<svg width="48" height="48" viewBox="0 0 48 48" fill="none" xmlns="http://www.w3.org/2000/svg">
<path d="M17.25 45C19.0402 45 20.7571 44.2888 22.023 43.023C23.2888 41.7571 24 40.0402 24 38.25V31.5H17.25C15.4598 31.5 13.7429 32.2112 12.477 33.477C11.2112 34.7429 10.5 36.4598 10.5 38.25C10.5 40.0402 11.2112 41.7571 12.477 43.023C13.7429 44.2888 15.4598 45 17.25 45Z" fill="#0ACF83"/>
<path d="M10.5 24C10.5 22.0109 11.2112 20.1032 12.477 18.6967C13.7429 17.2902 15.4598 16.5 17.25 16.5H24V31.5H17.25C15.4598 31.5 13.7429 30.7098 12.477 29.3033C11.2112 27.8968 10.5 25.9891 10.5 24Z" fill="#A259FF"/>
<path d="M10.5 9.75C10.5 7.9607 11.2107 6.24461 12.4759 4.97889C13.7412 3.71317 15.4574 3.0014 17.2474 3L24 3V16.5H17.2526C15.4617 16.5 13.7442 15.7888 12.4778 14.523C11.2114 13.2571 10.5 11.5402 10.5 9.75Z" fill="#F24E1E"/>
<path d="M24 3H30.75C32.5402 3 34.2571 3.71116 35.523 4.97703C36.7888 6.2429 37.5 7.95979 37.5 9.75C37.5 11.5402 36.7888 13.2571 35.523 14.523C34.2571 15.7888 32.5402 16.5 30.75 16.5H24V3Z" fill="#FF7262"/>
<path d="M37.5 24C37.5 25.9891 36.7888 27.8968 35.523 29.3033C34.2571 30.7098 32.5402 31.5 30.75 31.5C28.9598 31.5 27.2429 30.7098 25.977 29.3033C24.7112 27.8968 24 25.9891 24 24C24 22.0109 24.7112 20.1032 25.977 18.6967C27.2429 17.2902 28.9598 16.5 30.75 16.5C32.5402 16.5 34.2571 17.2902 35.523 18.6967C36.7888 20.1032 37.5 22.0109 37.5 24Z" fill="#1ABCFE"/>
</svg>
