<svg width="48" height="48" fill="none" xmlns="http://www.w3.org/2000/svg"><path d="M40.633 23.679a3.909 3.909 0 00-4.32-3.888l5.37-15.837H18.865l5.363 15.823c-.079 0-.158-.007-.238-.007a3.909 3.909 0 00-1.186 7.635 17.075 17.075 0 01-3.073 3.868 15.654 15.654 0 01-5.48 3.401 4.985 4.985 0 01-2.498-6.345c.116-.27.233-.543.344-.816a3.91 3.91 0 10-3.135-.6 30.2 30.2 0 00-2.833 7.18c-.532 3.203 0 6.6 2.767 8.522 6.45 4.471 13.454-2.772 20.837-4.592 2.675-.66 5.612-.553 7.969-1.918a6.675 6.675 0 003.268-4.632 6.957 6.957 0 00-1.246-5.283 3.9 3.9 0 00.909-2.507l.002-.004zM27.9 23.7v-.014a3.9 3.9 0 00-1.884-3.345l4.266-8.641 4.275 8.721a3.9 3.9 0 00-1.742 3.253v.086L27.9 23.7z" fill="#C63D14"/><path d="M41.589 23.679a4.871 4.871 0 00-3.965-4.779L43.017 3H17.534l5.4 15.931a4.861 4.861 0 00-1.5 8.877 16.303 16.303 0 01-2.353 2.77 14.74 14.74 0 01-4.74 3.045 3.984 3.984 0 01-1.7-4.92l.06-.14.11-.262a4.867 4.867 0 10-5.01-1.131c-.162.346-.333.697-.508 1.058a21 21 0 00-2.1 5.7c-.697 4.2.428 7.565 3.167 9.463A8.626 8.626 0 0013.4 45c3.198 0 6.433-1.606 9.6-3.178a35.51 35.51 0 016.963-2.878c.866-.213 1.757-.342 2.7-.478a14.966 14.966 0 005.52-1.542 7.636 7.636 0 003.73-5.295 7.883 7.883 0 00-1.036-5.42 4.835 4.835 0 00.712-2.532l-.001.002zm-1.91 0a2.955 2.955 0 11-5.91 0 2.955 2.955 0 015.91 0zm.671-18.77l-4.761 14.04c-.204.05-.404.112-.6.188l-4.702-9.6-4.718 9.543a4.796 4.796 0 00-.628-.171l-4.745-14H40.35zM23.99 20.724a2.955 2.955 0 110 5.91 2.955 2.955 0 010-5.91zm-12.783.029A2.954 2.954 0 118.25 23.7a2.958 2.958 0 012.955-2.955l.002.008zm28.825 10.55a5.73 5.73 0 01-2.806 3.97 13.35 13.35 0 01-4.835 1.303c-.948.136-1.927.277-2.886.514a36.88 36.88 0 00-7.35 3.02c-4.746 2.357-8.85 4.392-12.708 1.715-2.83-1.963-2.7-5.593-2.37-7.582A19.229 19.229 0 019 29.064l.405-.838c.403.16.826.267 1.257.315a5.947 5.947 0 003.15 6.982l.368.189.388-.138a16.545 16.545 0 005.813-3.6 18.114 18.114 0 002.877-3.479 4.862 4.862 0 003.96-8.44l3.056-6.181 3.089 6.3a4.86 4.86 0 006.132 7.5 5.936 5.936 0 01.533 3.633l.004-.003z" fill="#fff"/></svg>