<svg width="48" height="48" fill="none" xmlns="http://www.w3.org/2000/svg"><path d="M24 19.72A4.287 4.287 0 0019.719 24 4.287 4.287 0 0024 28.281a4.287 4.287 0 004.281-4.28A4.287 4.287 0 0024 19.718zM12.015 32.507l-.945-.234C4.038 30.492 0 27.477 0 23.993c0-3.485 4.04-6.5 11.07-8.282l.945-.234.265.938a47.13 47.13 0 002.728 7.156l.202.422-.203.429a46.57 46.57 0 00-2.726 7.156l-.266.93zm-1.382-14.61c-5.344 1.5-8.624 3.804-8.624 6.095 0 2.29 3.281 4.585 8.624 6.094a49.92 49.92 0 012.368-6.094 49.437 49.437 0 01-2.367-6.095zm25.352 14.61l-.266-.937a46.744 46.744 0 00-2.727-7.15l-.202-.428.203-.43a46.57 46.57 0 002.726-7.156l.266-.93.945.234C43.962 17.493 48 20.508 48 23.993c0 3.484-4.04 6.5-11.07 8.281l-.945.234zm-.986-8.515c.962 2.077 1.758 4.117 2.367 6.094 5.352-1.507 8.626-3.804 8.626-6.094 0-2.29-3.282-4.586-8.625-6.095A50.495 50.495 0 0135 23.993zM10.617 17.89l-.266-.938C8.374 9.984 8.976 4.985 12 3.242c2.969-1.712 7.727.312 12.718 5.437l.68.696-.68.696a47.187 47.187 0 00-4.843 5.937l-.273.383-.47.039a47.418 47.418 0 00-7.57 1.22l-.945.24zm3.796-13.257c-.538 0-1.015.109-1.414.343-1.985 1.149-2.335 5.133-.969 10.508a50.014 50.014 0 016.47-1.008 49.248 49.248 0 014.1-5.087c-3.117-3.039-6.07-4.758-8.187-4.758v.002zM33.595 45.35c-.008 0-.008 0 0 0-2.852 0-6.516-2.14-10.313-6.046l-.679-.696.68-.696a47.187 47.187 0 004.843-5.937l.265-.383.47-.046a46.002 46.002 0 007.578-1.22l.945-.234.265.938C39.625 38 39.024 42.99 36 44.733a4.643 4.643 0 01-2.406.617v.001zm-8.196-6.757c3.117 3.039 6.07 4.758 8.187 4.758h.008c.53 0 1.007-.117 1.406-.344 1.985-1.149 2.345-5.133.97-10.507a48.967 48.967 0 01-6.47 1 49.33 49.33 0 01-4.101 5.094v-.001zM37.383 17.89l-.945-.242a47.99 47.99 0 00-7.578-1.22l-.47-.038-.265-.383a47.187 47.187 0 00-4.843-5.937l-.68-.696.68-.696C28.273 3.554 33.032 1.53 36 3.242c3.024 1.741 3.626 6.742 1.648 13.711l-.265.938zM29.5 14.477c2.282.211 4.454.547 6.47 1.008 1.376-5.375 1.016-9.36-.969-10.508-1.977-1.14-5.695.609-9.601 4.415a51.107 51.107 0 014.1 5.086v-.001zM14.414 45.35A4.677 4.677 0 0112 44.735C8.976 42.993 8.374 38 10.351 31.032l.266-.937.945.234c2.313.586 4.86.991 7.57 1.22l.47.046.265.382a47.187 47.187 0 004.844 5.937l.68.696-.68.696c-3.789 3.906-7.453 6.047-10.297 6.047v-.002zm-2.383-12.85c-1.375 5.374-1.015 9.36.97 10.507 1.976 1.125 5.688-.609 9.601-4.414a49.33 49.33 0 01-4.101-5.094 48.776 48.776 0 01-6.47-1zM24 33.758c-1.648 0-3.336-.07-5.031-.212l-.47-.039-.272-.39a59.92 59.92 0 01-2.696-4.242 59.875 59.875 0 01-2.336-4.453l-.202-.43.202-.428a60.747 60.747 0 015.032-8.696l.273-.39.469-.039a59.943 59.943 0 0110.062 0l.47.04.272.39a60.115 60.115 0 015.031 8.695l.203.429-.203.429a59.43 59.43 0 01-5.03 8.695l-.274.39-.469.04a60.725 60.725 0 01-5.031.21zm-4.39-2.172a56.92 56.92 0 008.788 0 58.544 58.544 0 004.39-7.595 56.295 56.295 0 00-4.397-7.594 56.822 56.822 0 00-8.781 0 55.953 55.953 0 00-4.399 7.594 57.937 57.937 0 004.399 7.595z" fill="#20BCFF"/></svg>