<svg width="48" height="48" viewBox="0 0 48 48" fill="none" xmlns="http://www.w3.org/2000/svg">
<path d="M24 19.7191C21.6405 19.7191 19.719 21.6406 19.719 24.0001C19.719 26.3596 21.6405 28.2811 24 28.2811C26.3595 28.2811 28.281 26.3596 28.281 24.0001C28.281 21.6406 26.3595 19.7191 24 19.7191ZM12.015 32.5081L11.07 32.2741C4.038 30.4921 0 27.4771 0 23.9926C0 20.5081 4.0395 17.4931 11.07 15.7111L12.015 15.4771L12.2805 16.4146C12.9915 18.8671 13.905 21.2581 15.0075 23.5711L15.21 23.9926L15.0075 24.4216C13.9065 26.7256 12.9915 29.1166 12.2805 31.5781L12.015 32.5081ZM10.6335 17.8981C5.289 19.3981 2.0085 21.7021 2.0085 23.9926C2.0085 26.2831 5.2905 28.5781 10.6335 30.0871C11.2905 28.0006 12.0795 25.9696 13.0005 23.9926C12.078 22.0156 11.289 19.9846 10.6335 17.8981ZM35.985 32.5081L35.7195 31.5706C35.0085 29.1181 34.095 26.7271 32.9925 24.4216L32.79 23.9926L32.9925 23.5636C34.0935 21.2596 35.0085 18.8686 35.7195 16.4071L35.985 15.4771L36.93 15.7111C43.962 17.4931 48 20.5081 48 23.9926C48 27.4771 43.9605 30.4921 36.93 32.2741L35.985 32.5081ZM34.9995 23.9926C35.961 26.0701 36.7575 28.1101 37.3665 30.0871C42.7185 28.5796 45.9915 26.2831 45.9915 23.9926C45.9915 21.7021 42.7095 19.4071 37.3665 17.8981C36.7095 19.9756 35.9205 22.0156 34.9995 23.9926ZM10.617 17.8906L10.3515 16.9531C8.3745 9.98405 8.976 4.98455 12 3.24155C14.9685 1.53005 19.7265 3.55355 24.7185 8.67905L25.398 9.37505L24.7185 10.0711C22.9455 11.9146 21.3285 13.8991 19.875 16.0081L19.602 16.3906L19.1325 16.4296C16.578 16.6321 14.046 17.0386 11.562 17.6491L10.617 17.8906ZM14.4135 4.63355C13.875 4.63355 13.398 4.74305 12.999 4.97705C11.0145 6.12605 10.6635 10.1101 12.03 15.4846C14.163 15.0076 16.3185 14.6716 18.4995 14.4766C19.749 12.6946 21.1245 10.9921 22.6005 9.39005C19.4835 6.35105 16.53 4.63205 14.4135 4.63205V4.63355ZM33.594 45.3511C33.5865 45.3511 33.5865 45.3511 33.594 45.3511C30.7425 45.3511 27.078 43.2106 23.2815 39.3046L22.602 38.6086L23.2815 37.9126C25.0545 36.0691 26.6715 34.0846 28.125 31.9756L28.3905 31.5931L28.86 31.5466C31.4145 31.3516 33.9465 30.9451 36.438 30.3271L37.383 30.0931L37.6485 31.0306C39.6255 37.9996 39.024 42.9916 36 44.7331C35.265 45.1546 34.437 45.3661 33.594 45.3496V45.3511ZM25.398 38.5936C28.515 41.6326 31.4685 43.3516 33.585 43.3516H33.5925C34.1235 43.3516 34.6005 43.2346 34.9995 43.0081C36.984 41.8591 37.344 37.8751 35.9685 32.5006C33.8355 32.9776 31.671 33.3136 29.499 33.5011C28.2495 35.2906 26.874 36.9856 25.398 38.5951V38.5936ZM37.383 17.8906L36.438 17.6491C33.9465 17.0401 31.4145 16.6336 28.86 16.4296L28.3905 16.3906L28.125 16.0081C26.6715 13.8991 25.0545 11.9146 23.2815 10.0711L22.602 9.37505L23.2815 8.67905C28.2735 3.55355 33.0315 1.53005 36 3.24155C39.024 4.98305 39.6255 9.98405 37.6485 16.9531L37.383 17.8906ZM29.5005 14.4766C31.782 14.6881 33.954 15.0241 35.97 15.4846C37.3455 10.1101 36.9855 6.12455 35.001 4.97705C33.024 3.83705 29.3055 5.58605 25.3995 9.39155C26.8755 11.0011 28.2435 12.6961 29.5005 14.4781V14.4766ZM14.4135 45.3511C13.569 45.3661 12.7335 45.1561 12 44.7346C8.976 42.9931 8.3745 37.9996 10.3515 31.0321L10.617 30.0946L11.562 30.3286C13.875 30.9151 16.422 31.3201 19.1325 31.5481L19.602 31.5946L19.8675 31.9771C21.321 34.0861 22.938 36.0706 24.711 37.9141L25.3905 38.6101L24.711 39.3061C20.922 43.2121 17.2575 45.3526 14.4135 45.3526V45.3511ZM12.0315 32.5006C10.656 37.8751 11.016 41.8606 13.0005 43.0081C14.9775 44.1331 18.6885 42.3991 22.602 38.5936C21.126 36.9841 19.7505 35.2891 18.501 33.4996C16.3215 33.3121 14.1645 32.9761 12.0315 32.4991V32.5006ZM24 33.7576C22.3515 33.7576 20.664 33.6871 18.969 33.5461L18.4995 33.5071L18.2265 33.1171C17.274 31.7416 16.3665 30.3286 15.531 28.8751C14.6865 27.4216 13.914 25.9381 13.1955 24.4216L12.993 23.9926L13.1955 23.5636C13.914 22.0486 14.688 20.5636 15.531 19.1101C16.359 17.6806 17.265 16.2511 18.2265 14.8681L18.4995 14.4781L18.969 14.4391C22.32 14.1571 25.6875 14.1571 29.031 14.4391L29.5005 14.4781L29.7735 14.8681C31.6875 17.6176 33.375 20.5321 34.8045 23.5636L35.007 23.9926L34.8045 24.4216C33.375 27.4531 31.695 30.3676 29.7735 33.1171L29.5005 33.5071L29.031 33.5461C27.3435 33.6871 25.6485 33.7576 24 33.7576ZM19.6095 31.5856C22.563 31.8121 25.437 31.8121 28.398 31.5856C30.0465 29.1721 31.515 26.6326 32.7885 23.9911C31.5225 21.3511 30.054 18.8116 28.3905 16.3966C25.4685 16.1701 22.5315 16.1701 19.6095 16.3966C17.946 18.8101 16.476 21.3496 15.2115 23.9911C16.485 26.6311 17.9535 29.1706 19.6095 31.5856Z" fill="#20BCFF"/>
</svg>
