<svg width="48" height="48" viewBox="0 0 48 48" fill="none" xmlns="http://www.w3.org/2000/svg">
<path d="M33.2588 33.0413C29.8838 39.9413 23.9738 44.5838 16.155 46.1101C14.9562 46.4038 13.7255 46.5474 12.4913 46.5376C7.99126 46.5376 3.86626 44.6626 1.86376 41.5913C-0.824991 37.5001 -1.73999 28.8263 7.12501 22.4101C7.30501 23.3888 7.67251 24.7313 7.91626 25.5263C6.17601 26.8192 4.75155 28.4898 3.75001 30.4126C2.10001 33.6526 2.28376 36.8888 4.23751 39.8813C5.58751 41.8988 7.72501 43.1251 10.4738 43.5001C13.907 43.9346 17.39 43.2787 20.43 41.6251C25.1963 39.1201 28.3725 36.1276 30.45 32.0363C29.8626 31.4293 29.5149 30.63 29.4713 29.7863C29.4399 28.881 29.7689 28.0003 30.3862 27.3373C31.0034 26.6743 31.8585 26.2833 32.7638 26.2501H32.8913C33.7717 26.2457 34.6202 26.5799 35.2612 27.1836C35.9021 27.7874 36.2864 28.6144 36.3346 29.4936C36.3827 30.3727 36.0911 31.2368 35.52 31.9069C34.9488 32.5771 34.142 33.002 33.2663 33.0938L33.2588 33.0413ZM44.01 25.4663C48.5888 30.6563 48.7125 36.7651 46.9425 40.3088C45.2925 43.5451 40.9425 46.7851 35.0925 46.7851C32.3616 46.7294 29.6751 46.0833 27.2175 44.8913C28.0763 44.2801 29.295 43.3013 29.9663 42.6901C31.8615 43.5111 33.901 43.9471 35.9663 43.9726C39.7538 43.9726 42.6225 42.2026 44.3325 38.9663C45.4313 36.8288 45.495 34.3238 44.4563 31.7588C43.1817 28.5315 40.9136 25.7933 37.98 23.9401C34.1313 21.3456 29.5941 19.9625 24.9525 19.9688H23.8538C23.5975 20.5607 23.1807 21.069 22.6505 21.4361C22.1203 21.8033 21.4979 22.0147 20.8538 22.0463H20.7375C19.8466 22.0354 18.995 21.6775 18.3637 21.0488C17.7323 20.4201 17.3709 19.57 17.3563 18.6791C17.3417 17.7882 17.6749 16.9267 18.2852 16.2776C18.8956 15.6285 19.7349 15.2428 20.625 15.2026H20.7488C21.369 15.2031 21.9772 15.3744 22.5064 15.6979C23.0357 16.0214 23.4655 16.4845 23.7488 17.0363H24.7275C32.5275 17.0363 39.375 20.0288 44.01 25.4663ZM12.9788 34.0913C12.9145 33.4686 13.0654 32.8427 13.4063 32.3176C9.98626 26.3926 8.15626 18.8813 10.965 11.0626C12.9788 5.18634 18.0488 1.21509 23.5463 1.21509C29.4113 1.21509 35.52 6.34884 36.2513 16.2413C35.3363 15.9376 34.0013 15.4913 33.1988 15.3263C33 12.0901 30.2663 4.02759 23.79 4.14759C21.4688 4.21134 18.0488 5.31009 16.29 7.56759C14.1145 10.2624 12.8489 13.5773 12.675 17.0363C12.2628 21.7792 13.3756 26.5299 15.8513 30.5963C15.9879 30.5464 16.1336 30.526 16.2788 30.5363H16.3988C17.3058 30.5199 18.1822 30.8645 18.8352 31.4943C19.4882 32.124 19.8642 32.9874 19.8806 33.8945C19.897 34.8015 19.5525 35.6779 18.9227 36.3309C18.2929 36.9839 17.4295 37.3599 16.5225 37.3763H16.3988C15.5139 37.3732 14.6643 37.0287 14.0272 36.4146C13.3901 35.8005 13.0145 34.9643 12.9788 34.0801V34.0913Z" fill="#764ABC"/>
</svg>
