<svg width="48" height="48" fill="none" xmlns="http://www.w3.org/2000/svg"><path d="M33.259 33.041c-3.375 6.9-9.285 11.543-17.104 13.07a14.9 14.9 0 01-3.664.427c-4.5 0-8.625-1.875-10.627-4.947-2.689-4.09-3.604-12.765 5.261-19.18.18.978.548 2.32.791 3.115a14.34 14.34 0 00-4.166 4.887c-1.65 3.24-1.466 6.476.488 9.468 1.35 2.018 3.487 3.244 6.236 3.62a16.5 16.5 0 009.956-1.876c4.766-2.505 7.942-5.497 10.02-9.589a3.495 3.495 0 01-.979-2.25 3.42 3.42 0 013.293-3.536h.127a3.432 3.432 0 01.375 6.844l-.007-.053zm10.751-7.575c4.579 5.19 4.703 11.3 2.933 14.843-1.65 3.236-6 6.476-11.85 6.476a18.93 18.93 0 01-7.876-1.894 35.258 35.258 0 002.75-2.2 15.578 15.578 0 006 1.282c3.787 0 6.656-1.77 8.366-5.007 1.098-2.137 1.162-4.642.123-7.207a16.354 16.354 0 00-6.476-7.819 23.25 23.25 0 00-13.027-3.971h-1.1a3.454 3.454 0 01-3 2.077h-.116a3.424 3.424 0 01-.112-6.843h.124a3.375 3.375 0 013 1.833h.979c7.8 0 14.647 2.993 19.282 8.43zm-31.031 8.625a2.74 2.74 0 01.427-1.773c-3.42-5.925-5.25-13.437-2.441-21.255 2.014-5.877 7.084-9.848 12.581-9.848 5.865 0 11.974 5.134 12.705 15.026-.915-.303-2.25-.75-3.052-.915C33 12.09 30.266 4.028 23.79 4.148c-2.321.063-5.741 1.162-7.5 3.42a16.384 16.384 0 00-3.615 9.468c-.412 4.743.7 9.494 3.176 13.56.137-.05.283-.07.428-.06h.12a3.42 3.42 0 01.123 6.84H16.4a3.435 3.435 0 01-3.42-3.296v.011z" fill="#764ABC"/></svg>