<svg width="48" height="48" viewBox="0 0 48 48" fill="none" xmlns="http://www.w3.org/2000/svg">
<path d="M41.327 26.7126C39.8198 26.7146 38.3328 27.0596 36.9783 27.7215C36.5543 27.0171 36.2268 26.2587 36.0047 25.4668C35.8771 24.8461 35.8476 24.2092 35.9173 23.5793C36.0638 22.8862 36.2539 22.203 36.4864 21.5339C36.4778 21.4464 36.3818 21.0329 35.4168 21.0191C34.4518 21.0054 33.6204 21.2027 33.5313 21.4584C33.3637 21.9254 33.2291 22.4036 33.1285 22.8895C32.3298 24.862 31.3466 26.7545 30.1922 28.5417C29.5454 27.4803 29.2794 26.2298 29.438 24.9966C29.5845 24.3035 29.7746 23.6204 30.0071 22.9513C29.9985 22.8638 29.9025 22.4502 28.9375 22.4365C27.9724 22.4228 27.1411 22.6201 27.0519 22.8758C26.9628 23.1314 26.8497 23.7337 26.6491 24.3068C26.4486 24.88 24.1071 30.117 23.4934 31.4674C23.178 32.1537 22.9055 32.7131 22.7135 33.0906C22.7044 33.1152 22.6929 33.1387 22.6792 33.161C22.5078 33.4853 22.417 33.662 22.417 33.662V33.6706C22.285 33.9074 22.1444 34.1271 22.0742 34.1271C21.9516 33.6368 21.9575 33.1232 22.0913 32.6359C22.4341 30.8188 23.274 27.9944 23.2655 27.8965C23.2655 27.8434 23.4232 27.3526 22.7221 27.0986C22.5595 27.0212 22.3769 26.9961 22.1995 27.0268C22.022 27.0576 21.8585 27.1426 21.7313 27.2702C21.6696 27.2702 21.6268 27.4195 21.6268 27.4195C21.6268 27.4195 22.3896 24.2434 20.1715 24.2434C19.3077 24.4173 18.4874 24.7624 17.7589 25.2583C17.0303 25.7543 16.4082 26.3911 15.9291 27.1313C15.3326 27.4556 14.0624 28.1488 12.7031 28.8952C12.1889 29.1852 11.6506 29.4752 11.1518 29.7532C11.1176 29.7189 11.0816 29.6742 11.0473 29.6399C8.34756 26.7606 3.38521 24.729 3.59947 20.8767C3.67832 19.4731 4.15999 15.7873 13.1282 11.3105C20.5092 7.66929 26.3834 8.67825 27.3999 10.9158C28.8552 14.1109 24.2528 20.0428 16.6267 20.9025C15.783 21.0738 14.9117 21.0531 14.0771 20.842C13.2425 20.6308 12.4659 20.2345 11.8049 19.6824C11.4021 19.2432 11.3404 19.2174 11.1913 19.3049C10.9462 19.4371 11.1038 19.8317 11.1913 20.0599C11.4822 20.587 11.8757 21.0503 12.3485 21.4225C12.8213 21.7948 13.3639 22.0684 13.9441 22.2272C16.9442 22.8761 20.0721 22.5658 22.8866 21.34C27.5147 19.5503 31.1144 14.5741 30.0585 10.4062C28.9974 6.17644 21.985 4.78139 15.348 7.14593C11.1908 8.54625 7.34965 10.7519 4.04343 13.6373C0.387229 17.0605 -0.190426 20.0342 0.0461208 21.2817C0.903176 25.7053 6.98998 28.5829 9.42573 30.7192C9.30232 30.7896 9.18919 30.8514 9.0932 30.9028C7.87446 31.5086 3.22922 33.94 2.06534 36.5105C0.75062 39.4275 2.27618 41.5124 3.28408 41.7938C4.80279 42.1577 6.39712 42.0378 7.84448 41.4509C9.29185 40.864 10.52 39.8392 11.3575 38.5198C12.0707 37.4254 12.5091 36.1747 12.6353 34.8741C12.7616 33.5736 12.572 32.2618 12.0826 31.0504C12.0743 31.0308 12.0627 31.0128 12.0483 30.9972L13.0031 30.4361C13.6253 30.0672 14.239 29.7257 14.7652 29.4443C14.4083 30.4746 14.1989 31.5503 14.143 32.6394C14.0218 34.3085 14.5321 35.9623 15.5725 37.2723C15.7309 37.4088 15.9146 37.5124 16.1133 37.5772C16.3119 37.642 16.5213 37.6667 16.7296 37.6498C17.758 37.6498 18.2294 36.7919 18.7454 35.7726C19.3761 34.5269 19.9452 33.0786 19.9452 33.0786C19.9452 33.0786 19.2356 36.9926 21.164 36.9926C21.865 36.9926 22.5747 36.0798 22.8918 35.6199V35.6285C22.8918 35.6285 22.9089 35.6027 22.9449 35.541L23.0581 35.3574V35.3402C23.3392 34.8495 23.97 33.7341 24.9076 31.8826C26.1177 29.4958 27.2833 26.5118 27.2833 26.5118C27.3958 27.1676 27.5509 27.8153 27.7479 28.4508C28.0302 29.2211 28.3641 29.9715 28.7472 30.6969C28.4661 31.0916 28.2912 31.3112 28.2912 31.3112L28.2998 31.3198C28.0718 31.6184 27.8267 31.9427 27.5542 32.2584C26.7433 33.1509 25.9909 34.0949 25.3018 35.0845C25.1994 35.2508 25.1642 35.4498 25.2034 35.6411C25.2426 35.8325 25.3532 36.0016 25.5127 36.1141C25.8735 36.3021 26.2848 36.37 26.6868 36.308C27.2927 36.2737 27.8884 36.1374 28.4489 35.9048C28.9906 35.7139 29.5016 35.4451 29.9659 35.1068C30.4446 34.7749 30.8298 34.3253 31.0847 33.8012C31.3396 33.2771 31.4554 32.6962 31.4212 32.1143C31.3673 31.3813 31.1803 30.6643 30.8693 29.9986C30.9567 29.875 31.0407 29.7532 31.1229 29.6296C32.0975 28.1735 32.9758 26.6551 33.7524 25.0842C33.8648 25.7399 34.02 26.3877 34.2169 27.0231C34.4498 27.6888 34.7364 28.3344 35.074 28.9536C33.9528 29.817 33.0698 30.952 32.5079 32.2516C31.956 33.8491 32.3845 34.568 33.1936 34.7345C33.6363 34.765 34.079 34.6743 34.474 34.472C35.0549 34.2808 35.6021 33.9994 36.0956 33.638C36.6159 33.3306 37.0517 32.8985 37.3638 32.3806C37.6759 31.8628 37.8544 31.2753 37.8834 30.6712C37.8445 30.0682 37.7085 29.4754 37.4806 28.9158C38.96 28.3372 40.5641 28.1527 42.1361 28.3804C46.3083 28.8712 47.1327 31.4777 46.975 32.5759C46.9011 32.9652 46.7447 33.3341 46.5165 33.6579C46.2882 33.9817 45.9934 34.2528 45.6517 34.4531C45.3621 34.6367 45.2661 34.6985 45.2918 34.8306C45.3261 35.0245 45.4632 35.0142 45.7117 34.9799C46.3405 34.7842 46.8953 34.4024 47.303 33.8847C47.7106 33.367 47.9518 32.7377 47.9949 32.08C48.1269 29.5061 45.6723 26.6834 41.3322 26.7091L41.327 26.7126ZM9.13605 37.5709C7.75105 39.0809 5.82267 39.6506 4.98962 39.1684C4.09485 38.6537 4.44624 36.423 6.14664 34.8237C7.15531 33.9148 8.24552 33.1009 9.40345 32.3923C9.60572 32.2687 9.90397 32.0937 10.2605 31.8775L10.3565 31.8243L10.5673 31.6922C10.8711 32.7111 10.8987 33.7925 10.6471 34.8256C10.3956 35.8587 9.87409 36.8062 9.13605 37.5709ZM19.2167 30.7072C18.7351 31.8826 17.7272 34.8941 17.1135 34.7259C16.5873 34.5852 16.2565 32.303 17.009 30.0483C17.3889 28.9629 17.9423 27.9465 18.6476 27.0386C19.4019 26.1961 20.2349 25.9147 20.4355 26.2578C20.2525 27.7934 19.8417 29.293 19.2167 30.7072ZM27.5353 34.6916C27.333 34.7963 27.1411 34.8632 27.0536 34.8151C26.9919 34.7808 27.1411 34.6435 27.1411 34.6435C27.1411 34.6435 28.185 33.5196 28.5963 33.0117C28.8329 32.7131 29.1106 32.3631 29.4123 31.9667V32.08C29.4123 33.4218 28.1147 34.3261 27.537 34.695L27.5353 34.6916ZM33.9529 33.2262C33.8038 33.1215 33.8295 32.7698 34.33 31.6733C34.6781 30.9691 35.1643 30.3423 35.7596 29.8304C35.8509 30.0901 35.8984 30.3633 35.9002 30.6386C35.9069 31.2246 35.7197 31.7965 35.3678 32.2648C35.0159 32.7332 34.519 33.0719 33.9547 33.2279L33.9529 33.2262Z" fill="#CD6799"/>
</svg>
