<svg width="48" height="48" fill="none" xmlns="http://www.w3.org/2000/svg"><path d="M41.327 26.713a9.935 9.935 0 00-4.349 1.008 9.178 9.178 0 01-.973-2.254 6.062 6.062 0 01-.088-1.888c.147-.693.337-1.376.57-2.045-.01-.088-.105-.501-1.07-.515-.965-.014-1.797.184-1.886.44-.167.466-.302.945-.402 1.43a33.793 33.793 0 01-2.937 5.653 5.472 5.472 0 01-.754-3.545c.146-.694.337-1.377.57-2.046-.01-.087-.105-.5-1.07-.515-.966-.013-1.797.184-1.886.44-.09.255-.202.858-.403 1.43-.2.574-2.542 5.811-3.156 7.161a47.119 47.119 0 01-.814 1.694 54.77 54.77 0 00-.262.501v.009c-.132.236-.273.456-.343.456a2.94 2.94 0 01.017-1.491c.343-1.817 1.183-4.642 1.174-4.74 0-.053.158-.543-.543-.797a.87.87 0 00-.99.171c-.062 0-.105.15-.105.15s.763-3.177-1.455-3.177a6.604 6.604 0 00-4.243 2.888c-.596.325-1.867 1.018-3.226 1.764-.514.29-1.052.58-1.551.858-.034-.034-.07-.079-.105-.113-2.7-2.88-7.662-4.911-7.448-8.763.08-1.404.561-5.09 9.53-9.566 7.38-3.642 13.254-2.633 14.27-.395 1.456 3.195-3.146 9.127-10.772 9.986a5.74 5.74 0 01-4.822-1.22c-.403-.439-.465-.465-.614-.377-.245.132-.087.527 0 .755a4.504 4.504 0 002.753 2.167c3 .65 6.128.339 8.943-.887 4.628-1.79 8.227-6.766 7.171-10.934-1.06-4.23-8.073-5.625-14.71-3.26a33.415 33.415 0 00-11.305 6.491C.387 17.061-.19 20.034.046 21.282c.857 4.423 6.944 7.3 9.38 9.437-.124.07-.237.132-.333.184-1.219.606-5.864 3.037-7.028 5.608-1.314 2.916.211 5.001 1.22 5.283a7.49 7.49 0 008.072-3.274 8.112 8.112 0 00.726-7.47.184.184 0 00-.035-.053l.955-.56c.622-.37 1.236-.711 1.762-.993a11.574 11.574 0 00-.622 3.195 6.673 6.673 0 001.43 4.633 1.577 1.577 0 001.157.378c1.028 0 1.5-.858 2.015-1.877.631-1.246 1.2-2.694 1.2-2.694s-.71 3.914 1.219 3.914c.701 0 1.41-.913 1.728-1.373v.009s.017-.026.053-.088l.113-.184v-.017a74.63 74.63 0 001.85-3.457c1.21-2.387 2.375-5.371 2.375-5.371.113.656.268 1.303.465 1.939.282.77.616 1.52 1 2.246a15.83 15.83 0 01-.457.614l.009.009c-.228.298-.473.623-.746.938a27.977 27.977 0 00-2.252 2.826.768.768 0 00.21 1.03c.361.188.773.256 1.175.194a5.392 5.392 0 001.762-.403 5.914 5.914 0 001.517-.798 3.396 3.396 0 001.455-2.993A6.046 6.046 0 0030.87 30c.088-.124.172-.246.254-.37a40.203 40.203 0 002.63-4.545c.112.656.267 1.304.464 1.94.233.665.52 1.31.857 1.93a8.34 8.34 0 00-2.566 3.298c-.552 1.597-.123 2.316.686 2.482.442.031.885-.06 1.28-.262a5.829 5.829 0 001.622-.834 3.646 3.646 0 001.787-2.967 5.612 5.612 0 00-.402-1.755 9.172 9.172 0 014.655-.536c4.172.491 4.997 3.098 4.839 4.196a2.778 2.778 0 01-1.323 1.877c-.29.184-.386.245-.36.378.034.194.171.183.42.149a3.258 3.258 0 002.283-2.9c.132-2.574-2.323-5.397-6.663-5.37l-.005.003zM9.136 37.57c-1.385 1.51-3.313 2.08-4.146 1.597-.895-.514-.544-2.745 1.157-4.344a22.09 22.09 0 013.256-2.432c.203-.123.501-.298.857-.515l.097-.053.21-.132a5.999 5.999 0 01-1.431 5.879zm10.08-6.864c-.48 1.176-1.489 4.187-2.103 4.019-.526-.14-.857-2.423-.104-4.678a10.63 10.63 0 011.639-3.01c.754-.842 1.587-1.123 1.788-.78a15.563 15.563 0 01-1.22 4.45zm8.32 3.985c-.203.104-.395.171-.482.123-.062-.034.087-.171.087-.171s1.044-1.124 1.455-1.632c.237-.299.515-.649.816-1.045v.113c0 1.342-1.297 2.246-1.875 2.615l-.002-.003zm6.417-1.466c-.15-.105-.123-.456.377-1.553a5.849 5.849 0 011.43-1.843c.09.26.138.533.14.809a2.657 2.657 0 01-1.945 2.589l-.002-.002z" fill="#CD6799"/></svg>