<svg width="48" height="48" fill="none" xmlns="http://www.w3.org/2000/svg"><path d="M45.877 17.625H8.502v27.626h37.377V17.625z" fill="#fff"/><path d="M.563 23.966v23.438h46.874V.529H.563v23.437zm37.773-1.875a5.835 5.835 0 012.933 1.688c.434.452.812.956 1.125 1.5 0 .06-2.025 1.429-3.259 2.194-.045.03-.225-.165-.424-.462a2.66 2.66 0 00-2.201-1.323c-1.421-.098-2.336.648-2.329 1.875-.011.305.058.608.203.877.311.649.892 1.035 2.715 1.823 3.356 1.443 4.792 2.396 5.685 3.75.997 1.5 1.218 3.922.544 5.715-.75 1.95-2.588 3.273-5.187 3.712a14.375 14.375 0 01-3.57-.037 8.625 8.625 0 01-4.77-2.487c-.431-.476-1.271-1.717-1.218-1.807.136-.102.28-.193.43-.274l1.737-.96 1.346-.78.282.416a6.292 6.292 0 001.777 1.703c1.5.787 3.547.679 4.56-.233a2.037 2.037 0 00.259-2.595c-.375-.52-1.125-.96-3.221-1.875-2.42-1.042-3.462-1.687-4.414-2.715a6.18 6.18 0 01-1.287-2.343 9.375 9.375 0 01-.082-3c.499-2.337 2.25-3.968 4.808-4.452a11.874 11.874 0 013.558.098v-.008zm-11.002 1.965v1.92h-6.087v17.337h-4.316v-17.34H10.83v-1.875a18.444 18.444 0 01.045-1.94c.03-.033 3.75-.033 8.25-.033h8.186l.023 1.931z" fill="#007ACC"/></svg>