<svg width="48" height="48" fill="none" xmlns="http://www.w3.org/2000/svg"><path d="M43.984 36.788L24.84 47.624v-8.441l11.91-6.559 7.234 4.163zm1.312-1.185V12.956l-7.005 4.05V31.56l7.002 4.039.003.004zm-41.28 1.184l19.125 10.83v-8.433l-11.913-6.559-7.212 4.163zm-1.312-1.184V12.956l7.005 4.05V31.56l-7.005 4.043zm.821-24.113L23.16.375v8.16l-12.581 6.919-.102.056-6.952-4.02zm40.942 0L24.84.375v8.16l12.581 6.915.102.056 6.952-4.016h-.008z" fill="#8ED6FB"/><path d="M23.16 37.264l-11.771-6.477V17.97l11.771 6.78v12.514zm1.68 0l11.771-6.47V17.97L24.84 24.75v12.514zM12.188 16.5L24 9.997 35.813 16.5 24 23.31 12.187 16.5z" fill="#1C78C0"/></svg>