<svg width="48" height="48" viewBox="0 0 48 48" fill="none" xmlns="http://www.w3.org/2000/svg">
<path d="M43.9837 36.7875L24.84 47.625V39.1838L36.75 32.625L43.9837 36.7875ZM45.2962 35.6025V12.9562L38.2912 17.0062V31.56L45.2925 35.5988L45.2962 35.6025ZM4.01624 36.7875L23.1412 47.6175V39.1838L11.2275 32.625L4.01624 36.7875ZM2.70374 35.6025V12.9562L9.70873 17.0062V31.56L2.70374 35.6025ZM3.52499 11.49L23.16 0.375V8.535L10.5787 15.4537L10.4775 15.51L3.52499 11.49ZM44.4675 11.49L24.84 0.375V8.535L37.4212 15.45L37.5225 15.5062L44.475 11.49H44.4675Z" fill="#8ED6FB"/>
<path d="M23.16 37.2637L11.3887 30.7874V17.9699L23.16 24.7499V37.2637ZM24.84 37.2637L36.6112 30.7949V17.9699L24.84 24.7499V37.2637ZM12.1875 16.4999L24 9.99744L35.8125 16.4999L24 23.3099L12.1875 16.4999Z" fill="#1C78C0"/>
</svg>
